name D:\school\WTK\thesis\model\3dpredictsim\Results\MidTarsalJoint\Fal_s1_bCst_PF_Natali2010_ls150_MT_k10_MTP_T5_ig24_PFx10.mot
datacolumns 128
datarows 4
range 0.00000000 0.03307806
endheader
time	pelvis_tilt	pelvis_list	pelvis_rotation	pelvis_tx	pelvis_ty	pelvis_tz	hip_flexion_l	hip_adduction_l	hip_rotation_l	hip_flexion_r	hip_adduction_r	hip_rotation_r	knee_angle_l	knee_angle_r	ankle_angle_l	ankle_angle_r	subtalar_angle_l	subtalar_angle_r	tmt_angle_l	tmt_angle_r	mtp_angle_l	mtp_angle_r	lumbar_extension	lumbar_bending	lumbar_rotation	arm_flex_l	arm_add_l	arm_rot_l	arm_flex_r	arm_add_r	arm_rot_r	elbow_flex_l	elbow_flex_r	pro_sup_l	pro_sup_r	glut_med1_l/activation	glut_med2_l/activation	glut_med3_l/activation	glut_min1_l/activation	glut_min2_l/activation	glut_min3_l/activation	semimem_l/activation	semiten_l/activation	bifemlh_l/activation	bifemsh_l/activation	sar_l/activation	add_long_l/activation	add_brev_l/activation	add_mag1_l/activation	add_mag2_l/activation	add_mag3_l/activation	tfl_l/activation	pect_l/activation	grac_l/activation	glut_max1_l/activation	glut_max2_l/activation	glut_max3_l/activation	iliacus_l/activation	psoas_l/activation	quad_fem_l/activation	gem_l/activation	peri_l/activation	rect_fem_l/activation	vas_med_l/activation	vas_int_l/activation	vas_lat_l/activation	med_gas_l/activation	lat_gas_l/activation	soleus_l/activation	tib_post_l/activation	flex_dig_l/activation	flex_hal_l/activation	tib_ant_l/activation	per_brev_l/activation	per_long_l/activation	per_tert_l/activation	ext_dig_l/activation	ext_hal_l/activation	ercspn_l/activation	intobl_l/activation	extobl_l/activation	glut_med1_r/activation	glut_med2_r/activation	glut_med3_r/activation	glut_min1_r/activation	glut_min2_r/activation	glut_min3_r/activation	semimem_r/activation	semiten_r/activation	bifemlh_r/activation	bifemsh_r/activation	sar_r/activation	add_long_r/activation	add_brev_r/activation	add_mag1_r/activation	add_mag2_r/activation	add_mag3_r/activation	tfl_r/activation	pect_r/activation	grac_r/activation	glut_max1_r/activation	glut_max2_r/activation	glut_max3_r/activation	iliacus_r/activation	psoas_r/activation	quad_fem_r/activation	gem_r/activation	peri_r/activation	rect_fem_r/activation	vas_med_r/activation	vas_int_r/activation	vas_lat_r/activation	med_gas_r/activation	lat_gas_r/activation	soleus_r/activation	tib_post_r/activation	flex_dig_r/activation	flex_hal_r/activation	tib_ant_r/activation	per_brev_r/activation	per_long_r/activation	per_tert_r/activation	ext_dig_r/activation	ext_hal_r/activation	ercspn_r/activation	intobl_r/activation	extobl_r/activation	
          0.00000000	         -2.92995335	         -2.05028368	          4.81114182	          0.00000000	          0.91971041	         -0.00235563	        -17.92103203	         -0.13945060	          7.10170788	         30.09181489	          3.82005667	         -1.67792501	         -5.20127317	        -13.57498702	          2.39354860	          6.79263935	          2.89825847	         -6.00955459	         -3.57127435	        -14.57334274	         18.18001569	         60.04484111	         -2.16750004	          0.25045419	         -1.81198924	          4.70443338	        -13.45365953	         15.40075233	         -3.88918439	        -13.46646664	          6.09380433	         32.74519523	         17.66963088	         86.51662706	         86.51662706	          0.38198750	          0.09818281	          0.07006532	          0.39230698	          0.22352154	          0.10802010	          0.05000048	          0.05000010	          0.05000007	          0.07119186	          0.11462628	          0.05000003	          0.05000004	          0.05000006	          0.05000021	          0.05000015	          0.35094115	          0.05000018	          0.05000017	          0.05000562	          0.05000171	          0.05000050	          0.44642729	          0.68273978	          0.05000008	          0.05000041	          0.05000065	          0.20059709	          0.05000026	          0.05000024	          0.05000023	          0.33045201	          0.46874493	          0.32261394	          0.29925089	          0.30183976	          0.36056015	          0.05000003	          0.05000061	          0.08781212	          0.05000016	          0.05000004	          0.05000016	          0.05000000	          0.05000000	          0.05000002	          0.05000008	          0.05000012	          0.05918826	          0.05000005	          0.05000006	          0.05000037	          0.22805714	          0.05918822	          0.05918829	          0.05000008	          0.05000021	          0.12653161	          0.23614240	          0.21137151	          0.16350207	          0.09734750	          0.05918835	          0.05000309	          0.07943827	          0.05918894	          0.06997751	          0.10142687	          0.05000003	          0.05000005	          0.23137422	          0.05000121	          0.05000013	          0.05000027	          0.11040918	          0.11047260	          0.09496787	          0.05009508	          0.05000049	          0.05918827	          0.05000002	          0.05000019	          0.05000018	          0.53486316	          0.26563451	          0.20733041	          0.07159148	          0.53657048	          0.17580766	          0.05918840	          0.12841059	          0.12587809	
          0.01102602	         -2.92952731	         -2.17197070	          5.09731995	          0.01643976	          0.91879463	         -0.00221150	        -17.90647832	         -0.45748815	          6.91145711	         29.45181007	          4.20128809	         -1.45791163	         -6.88006897	        -13.38767768	          1.94202682	          6.26603489	          3.81582074	         -6.15224783	         -4.26361221	        -14.53971177	         20.30700520	         59.89487611	         -1.98051529	          0.46589491	         -1.87426400	          4.43443021	        -13.46334464	         15.70117932	         -4.66760549	        -13.47000895	          5.73557230	         33.86679121	         17.24919563	         86.51662706	         86.51662706	          0.32268818	          0.08294100	          0.05918846	          0.33140563	          0.18882227	          0.09125116	          0.05000097	          0.05000020	          0.05000021	          0.06014011	          0.09683189	          0.08134816	          0.06636033	          0.05000351	          0.05000257	          0.05000541	          0.29646143	          0.05581199	          0.05000107	          0.05000076	          0.05000052	          0.05000060	          0.37712433	          0.63337385	          0.05000012	          0.05000092	          0.05918813	          0.16945664	          0.06888455	          0.15462453	          0.13032888	          0.27915292	          0.39597744	          0.30074834	          0.28839618	          0.26942620	          0.35319965	          0.05000002	          0.05000021	          0.09132315	          0.05000011	          0.05000002	          0.05000011	          0.05000001	          0.07006524	          0.05000001	          0.05001583	          0.05000031	          0.05000005	          0.05918840	          0.05147730	          0.05000012	          0.19750197	          0.05000012	          0.05000005	          0.05000037	          0.05000173	          0.11622865	          0.21130372	          0.25802650	          0.17382519	          0.09167890	          0.05000008	          0.05013005	          0.06710702	          0.05000064	          0.05911433	          0.11099633	          0.05714643	          0.05911473	          0.55570287	          0.13758294	          0.05000121	          0.07742954	          0.20089675	          0.19945920	          0.17320906	          0.05000000	          0.05000000	          0.05000000	          0.05153327	          0.05000118	          0.05000057	          0.60371313	          0.22439767	          0.22846237	          0.28109083	          0.56854685	          0.16528805	          0.05000006	          0.10847624	          0.10633689	
          0.02205204	         -2.92604415	         -2.29751615	          5.36318931	          0.03322629	          0.91801950	         -0.00207897	        -17.79938095	         -0.78134429	          6.71091972	         28.69161518	          4.52523280	         -1.17497235	         -8.69850088	        -13.67985664	          1.30499571	          5.78028577	          4.73850175	         -6.33997466	         -5.12091913	        -14.58371926	         22.89710717	         59.85343651	         -1.76915989	          0.69306462	         -1.92721100	          4.08272130	        -13.47232180	         15.93958410	         -5.49756017	        -13.47763011	          5.41372244	         34.98306455	         16.90686456	         86.51662706	         86.51662706	          0.38404060	          0.07006532	          0.05000014	          0.27995861	          0.15950968	          0.07708542	          0.05000132	          0.05000045	          0.05000028	          0.05080404	          0.08179991	          0.11013008	          0.05918857	          0.05918808	          0.05821160	          0.05918853	          0.25043927	          0.05000592	          0.05000116	          0.05000562	          0.05000627	          0.05017335	          0.32402351	          0.61184164	          0.05000045	          0.05000049	          0.05000005	          0.14315035	          0.13595998	          0.13062122	          0.11009722	          0.23581746	          0.33450624	          0.25406042	          0.24362591	          0.22760088	          0.29836948	          0.05000002	          0.05000011	          0.12035491	          0.05000007	          0.05000002	          0.05000011	          0.05000003	          0.05918837	          0.05918834	          0.22891010	          0.05000006	          0.19250842	          0.05000012	          0.05000008	          0.18942842	          0.18337756	          0.05000017	          0.05973340	          0.05000004	          0.05000016	          0.09818549	          0.24971864	          0.21797083	          0.14684094	          0.10549791	          0.05000052	          0.05919011	          0.08834394	          0.05000013	          0.05000012	          0.09376550	          0.05187833	          0.05000068	          0.46943603	          0.11622472	          0.12845405	          0.06540945	          0.16970979	          0.16849541	          0.14632029	          0.06079453	          0.06885308	          0.05961858	          0.05918831	          0.05918712	          0.05918592	          0.56160765	          0.32789477	          0.19299610	          0.23745473	          0.59464665	          0.13962888	          0.05000001	          0.11452531	          0.08982924	
          0.03307806	         -2.92094704	         -2.43053076	          5.60265302	          0.05021408	          0.91740469	         -0.00193408	        -17.57139326	         -1.11136795	          6.50850055	         27.81451542	          4.81191701	         -0.87320529	        -10.68077405	        -13.98441652	          0.44053976	          5.44282450	          5.64680680	         -6.54842381	         -6.11244441	        -14.60206014	         25.96029112	         59.95357585	         -1.54814207	          0.93454507	         -1.97210009	          3.67278069	        -13.48218614	         16.12743569	         -6.34274500	        -13.48809437	          5.14538385	         36.07584812	         16.62125724	         86.51662706	         86.51662706	          0.40017358	          0.05918845	          0.05000002	          0.39926378	          0.13474756	          0.06511876	          0.05000086	          0.05000008	          0.05000006	          0.05000010	          0.07006420	          0.10854184	          0.05000034	          0.05000019	          0.05000038	          0.05000049	          0.27858932	          0.05130021	          0.05000019	          0.05000045	          0.05000027	          0.05000021	          0.27372245	          0.56744028	          0.05000002	          0.05000016	          0.05000007	          0.15318956	          0.11494027	          0.11034503	          0.09492553	          0.19920935	          0.28257777	          0.21462029	          0.20580564	          0.19226837	          0.25205090	          0.05000000	          0.07241550	          0.13668072	          0.05000008	          0.05000001	          0.05000007	          0.05154504	          0.05000002	          0.05000001	          0.32006952	          0.27083402	          0.31350492	          0.14133928	          0.18709167	          0.16002204	          0.15491020	          0.07943882	          0.05305208	          0.08258330	          0.05000627	          0.08294327	          0.21095254	          0.18413329	          0.12404557	          0.13103146	          0.05000017	          0.05000164	          0.07462976	          0.20137544	          0.15000203	          0.07930318	          0.05000003	          0.05000003	          0.39656119	          0.09818216	          0.10851302	          0.05525535	          0.14336430	          0.14233861	          0.12360578	          0.05135685	          0.05816443	          0.05036344	          0.05000001	          0.05000007	          0.05000009	          0.65744137	          0.35037942	          0.19636604	          0.47360216	          0.63442383	          0.28796748	          0.06965656	          0.09818266	          0.07588423	
